<svg xmlns="http://www.w3.org/2000/svg" viewBox="0 0 512 512">
 <rect width="512" height="512" rx="96" fill="#f7f3ea"/>
 <circle cx="205" cy="215" r="130" fill="none" stroke="#397236" stroke-width="22"/>
 <path d="M84 215h58M205 84v58" stroke="#397236" stroke-width="22"/>
 <path d="M125 324c54-106 73-145 136-155 44-7 92 31 86 77-5 42-43 68-87 70-49 2-81 9-135 8z" fill="#164b2d"/>
 <path d="M281 190l46-48 22 52M125 324l-30 35 47-5" fill="#164b2d"/>
 <rect x="275" y="224" width="155" height="205" rx="16" fill="#fff" stroke="#164b2d" stroke-width="18"/>
 <path d="M314 279h78M314 320h78M314 361h42" stroke="#397236" stroke-width="14"/>
 <path d="M350 392l20 20 42-48" fill="none" stroke="#397236" stroke-width="15"/>
</svg>
